<?xml version="1.0" standalone="no"?>
<!DOCTYPE svg PUBLIC "-//W3C//DTD SVG 20010904//EN"
 "http://www.w3.org/TR/2001/REC-SVG-20010904/DTD/svg10.dtd">
<svg version="1.0" xmlns="http://www.w3.org/2000/svg"
 width="380.000000pt" height="380.000000pt" viewBox="0 0 380.000000 380.000000"
 preserveAspectRatio="xMidYMid meet">
<metadata>
Created by potrace 1.11, written by Peter Selinger 2001-2013
</metadata>
<g transform="translate(0.000000,380.000000) scale(0.100000,-0.100000)"
fill="#000000" stroke="none">
<path d="M1278 3244 c-2 -1 -75 -5 -163 -8 -342 -12 -516 -26 -585 -48 -147
-46 -244 -145 -298 -303 -61 -181 -77 -375 -77 -945 0 -473 9 -625 50 -835 22
-111 86 -237 151 -293 99 -88 205 -118 482 -138 l92 -6 0 91 c0 108 -3 87 20
166 23 80 71 177 115 231 74 90 149 152 370 309 77 54 158 116 180 136 22 20
54 50 71 66 47 43 131 157 165 224 16 32 33 59 37 59 4 0 20 -26 37 -58 33
-62 109 -168 159 -220 50 -52 192 -164 316 -247 63 -43 138 -96 165 -119 183
-149 286 -358 279 -569 l-2 -68 101 6 c217 12 291 25 372 65 164 80 260 265
281 543 3 43 7 88 10 100 23 120 22 922 -1 1142 -3 22 -7 67 -9 101 -15 191
-79 364 -167 453 -105 105 -192 129 -529 146 -74 4 -173 9 -220 12 -99 5
-1398 12 -1402 7z m620 -319 c-91 -90 -129 -160 -129 -238 0 -79 31 -155 90
-220 31 -34 123 -83 172 -91 19 -3 48 -8 64 -11 17 -3 64 -5 105 -6 70 -1 74
-2 55 -16 -66 -51 -155 -75 -280 -77 l-70 -1 0 -54 c0 -49 3 -55 38 -83 46
-37 48 -68 8 -109 -46 -46 -110 -38 -139 18 -23 43 -13 70 39 107 23 16 33 86
17 121 -5 11 -34 33 -64 49 -83 44 -139 99 -176 174 -29 58 -33 76 -33 147 0
68 4 89 28 138 51 103 147 180 265 212 90 25 91 20 10 -60z m228 -152 c14 -9
44 -17 65 -17 21 0 39 -1 39 -2 0 -1 -20 -14 -45 -28 l-45 -27 16 -37 c33 -75
31 -79 -12 -46 -60 47 -60 47 -114 8 -27 -20 -50 -34 -50 -31 0 2 10 26 21 52
l21 48 -23 19 c-13 10 -34 23 -46 28 -40 16 -25 26 36 23 l59 -2 13 47 13 46
13 -32 c7 -17 25 -39 39 -49z"/>
</g>
</svg>
